<svg width="24" height="24" viewBox="0 0 24 24" fill="none" xmlns="http://www.w3.org/2000/svg">
<path d="M3.37113 22.7998C3.13646 22.7998 2.94446 22.7251 2.79513 22.5758C2.64579 22.4265 2.57113 22.2345 2.57113 21.9998V1.1998C2.57113 0.965137 2.64579 0.773137 2.79513 0.623804C2.94446 0.47447 3.13646 0.399803 3.37113 0.399803H6.85913C7.09379 0.399803 7.28579 0.47447 7.43513 0.623804C7.58446 0.773137 7.65913 0.965137 7.65913 1.1998V9.1998H16.3311V1.1998C16.3311 0.965137 16.4058 0.773137 16.5551 0.623804C16.7045 0.47447 16.8965 0.399803 17.1311 0.399803H20.6191C20.8538 0.399803 21.0458 0.47447 21.1951 0.623804C21.3445 0.773137 21.4191 0.965137 21.4191 1.1998V21.9998C21.4191 22.2345 21.3445 22.4265 21.1951 22.5758C21.0458 22.7251 20.8538 22.7998 20.6191 22.7998H17.1311C16.8965 22.7998 16.7045 22.7251 16.5551 22.5758C16.4058 22.4265 16.3311 22.2345 16.3311 21.9998V13.7438H7.65913V21.9998C7.65913 22.2345 7.58446 22.4265 7.43513 22.5758C7.28579 22.7251 7.09379 22.7998 6.85913 22.7998H3.37113Z" fill="#F4C4F5"/>
<rect x="0.291016" y="3" width="3" height="23.5636" transform="rotate(-90 0.291016 3)" fill="url(#paint0_linear_77_7362)"/>
<rect x="0.291016" y="24" width="3" height="23.5636" transform="rotate(-90 0.291016 24)" fill="url(#paint1_linear_77_7362)"/>
<defs>
<linearGradient id="paint0_linear_77_7362" x1="3.29102" y1="14.7818" x2="0.291016" y2="14.7818" gradientUnits="userSpaceOnUse">
<stop stop-color="#7E30E1"/>
<stop offset="1" stop-color="#F4C4F5"/>
</linearGradient>
<linearGradient id="paint1_linear_77_7362" x1="3.29102" y1="35.7818" x2="0.291016" y2="35.7818" gradientUnits="userSpaceOnUse">
<stop stop-color="#F4C4F5"/>
<stop offset="1" stop-color="#7E30E1"/>
</linearGradient>
</defs>
</svg>
