<svg width="165" height="40" viewBox="0 0 165 40" fill="none" xmlns="http://www.w3.org/2000/svg">
<path d="M3.3655 31C3.13084 31 2.93884 30.9253 2.7895 30.776C2.64017 30.6267 2.5655 30.4347 2.5655 30.2V9.4C2.5655 9.16533 2.64017 8.97333 2.7895 8.824C2.93884 8.67467 3.13084 8.6 3.3655 8.6H6.8535C7.08817 8.6 7.28017 8.67467 7.4295 8.824C7.57884 8.97333 7.6535 9.16533 7.6535 9.4V17.4H16.3255V9.4C16.3255 9.16533 16.4002 8.97333 16.5495 8.824C16.6988 8.67467 16.8908 8.6 17.1255 8.6H20.6135C20.8482 8.6 21.0402 8.67467 21.1895 8.824C21.3388 8.97333 21.4135 9.16533 21.4135 9.4V30.2C21.4135 30.4347 21.3388 30.6267 21.1895 30.776C21.0402 30.9253 20.8482 31 20.6135 31H17.1255C16.8908 31 16.6988 30.9253 16.5495 30.776C16.4002 30.6267 16.3255 30.4347 16.3255 30.2V21.944H7.6535V30.2C7.6535 30.4347 7.57884 30.6267 7.4295 30.776C7.28017 30.9253 7.08817 31 6.8535 31H3.3655ZM35.6953 31.32C33.7539 31.32 32.0793 31 30.6713 30.36C29.2633 29.72 28.1646 28.76 27.3753 27.48C26.5859 26.1787 26.1593 24.5467 26.0953 22.584C26.0739 21.6667 26.0633 20.76 26.0633 19.864C26.0633 18.9467 26.0739 18.0187 26.0953 17.08C26.1593 15.16 26.5859 13.5493 27.3753 12.248C28.1859 10.9253 29.2953 9.93333 30.7033 9.272C32.1326 8.61067 33.7966 8.28 35.6953 8.28C37.5726 8.28 39.2153 8.61067 40.6233 9.272C42.0526 9.93333 43.1726 10.9253 43.9833 12.248C44.7939 13.5493 45.2206 15.16 45.2633 17.08C45.3059 18.0187 45.3273 18.9467 45.3273 19.864C45.3273 20.76 45.3059 21.6667 45.2633 22.584C45.1993 24.5467 44.7726 26.1787 43.9833 27.48C43.1939 28.76 42.0953 29.72 40.6873 30.36C39.2793 31 37.6153 31.32 35.6953 31.32ZM35.6953 27.192C36.9326 27.192 37.9459 26.8187 38.7353 26.072C39.5459 25.304 39.9726 24.088 40.0153 22.424C40.0579 21.4853 40.0793 20.6107 40.0793 19.8C40.0793 18.968 40.0579 18.0933 40.0153 17.176C39.9939 16.0667 39.7913 15.16 39.4073 14.456C39.0233 13.752 38.5113 13.24 37.8713 12.92C37.2526 12.5787 36.5273 12.408 35.6953 12.408C34.8633 12.408 34.1273 12.5787 33.4873 12.92C32.8473 13.24 32.3353 13.752 31.9513 14.456C31.5886 15.16 31.3859 16.0667 31.3433 17.176C31.3219 18.0933 31.3113 18.968 31.3113 19.8C31.3113 20.6107 31.3219 21.4853 31.3433 22.424C31.4073 24.088 31.8339 25.304 32.6233 26.072C33.4126 26.8187 34.4366 27.192 35.6953 27.192ZM50.7393 31C50.5046 31 50.3126 30.9253 50.1633 30.776C50.0139 30.6267 49.9393 30.4347 49.9393 30.2V9.4C49.9393 9.16533 50.0139 8.97333 50.1633 8.824C50.3126 8.67467 50.5046 8.6 50.7393 8.6H54.2913C54.5259 8.6 54.7179 8.67467 54.8673 8.824C55.0166 8.97333 55.0913 9.16533 55.0913 9.4V26.712H65.0113C65.2459 26.712 65.4379 26.7867 65.5873 26.936C65.7366 27.0853 65.8113 27.2773 65.8113 27.512V30.2C65.8113 30.4347 65.7366 30.6267 65.5873 30.776C65.4379 30.9253 65.2459 31 65.0113 31H50.7393ZM70.1918 31C69.9571 31 69.7651 30.9253 69.6158 30.776C69.4664 30.6267 69.3918 30.4347 69.3918 30.2V9.4C69.3918 9.16533 69.4664 8.97333 69.6158 8.824C69.7651 8.67467 69.9571 8.6 70.1918 8.6H73.8078C74.0424 8.6 74.2344 8.67467 74.3838 8.824C74.5331 8.97333 74.6078 9.16533 74.6078 9.4V30.2C74.6078 30.4347 74.5331 30.6267 74.3838 30.776C74.2344 30.9253 74.0424 31 73.8078 31H70.1918ZM80.7692 31C80.5346 31 80.3426 30.9253 80.1932 30.776C80.0439 30.6267 79.9692 30.4347 79.9692 30.2V9.4C79.9692 9.16533 80.0439 8.97333 80.1932 8.824C80.3426 8.67467 80.5346 8.6 80.7692 8.6H88.8013C90.9346 8.6 92.7159 8.94133 94.1453 9.624C95.5746 10.2853 96.6626 11.2667 97.4093 12.568C98.1773 13.848 98.5826 15.4373 98.6252 17.336C98.6466 18.2747 98.6573 19.096 98.6573 19.8C98.6573 20.504 98.6466 21.3147 98.6252 22.232C98.5613 24.216 98.1666 25.8587 97.4412 27.16C96.7159 28.4613 95.6493 29.432 94.2413 30.072C92.8333 30.6907 91.0733 31 88.9613 31H80.7692ZM85.0573 26.872H88.8013C89.8679 26.872 90.7426 26.712 91.4253 26.392C92.1079 26.072 92.6093 25.5707 92.9293 24.888C93.2706 24.184 93.4519 23.2773 93.4733 22.168C93.4946 21.5493 93.5052 20.9947 93.5052 20.504C93.5266 20.0133 93.5266 19.5227 93.5052 19.032C93.5052 18.5413 93.4946 17.9973 93.4733 17.4C93.4306 15.8 93.0146 14.6267 92.2253 13.88C91.4573 13.112 90.2626 12.728 88.6413 12.728H85.0573V26.872ZM101.516 31C101.324 31 101.164 30.936 101.036 30.808C100.908 30.6587 100.844 30.4987 100.844 30.328C100.844 30.2213 100.855 30.1253 100.876 30.04L108.492 9.464C108.556 9.22933 108.684 9.02667 108.876 8.856C109.068 8.68533 109.335 8.6 109.676 8.6H113.772C114.113 8.6 114.38 8.68533 114.572 8.856C114.764 9.02667 114.892 9.22933 114.956 9.464L122.572 30.04C122.593 30.1253 122.604 30.2213 122.604 30.328C122.604 30.4987 122.54 30.6587 122.412 30.808C122.284 30.936 122.124 31 121.932 31H118.604C118.284 31 118.049 30.9253 117.9 30.776C117.751 30.6267 117.655 30.488 117.612 30.36L116.236 26.776H107.212L105.836 30.36C105.793 30.488 105.697 30.6267 105.548 30.776C105.399 30.9253 105.164 31 104.844 31H101.516ZM108.396 22.648H115.02L111.724 13.432L108.396 22.648ZM125.647 31C125.413 31 125.221 30.9253 125.071 30.776C124.922 30.6053 124.847 30.4133 124.847 30.2V27.512C124.847 27.2133 124.911 26.968 125.039 26.776C125.167 26.584 125.263 26.4453 125.327 26.36L136.079 12.856H125.935C125.722 12.856 125.541 12.7813 125.391 12.632C125.242 12.4827 125.167 12.3013 125.167 12.088V9.4C125.167 9.16533 125.242 8.97333 125.391 8.824C125.541 8.67467 125.722 8.6 125.935 8.6H141.647C141.882 8.6 142.074 8.67467 142.223 8.824C142.394 8.97333 142.479 9.16533 142.479 9.4V12.056C142.479 12.2907 142.437 12.504 142.351 12.696C142.266 12.8667 142.17 13.016 142.063 13.144L131.599 26.712H142.031C142.266 26.712 142.458 26.7867 142.607 26.936C142.757 27.0853 142.831 27.2773 142.831 27.512V30.2C142.831 30.4347 142.757 30.6267 142.607 30.776C142.458 30.9253 142.266 31 142.031 31H125.647ZM147.814 31C147.58 31 147.388 30.9253 147.238 30.776C147.089 30.6267 147.014 30.4347 147.014 30.2V9.4C147.014 9.16533 147.089 8.97333 147.238 8.824C147.388 8.67467 147.58 8.6 147.814 8.6H162.31C162.545 8.6 162.737 8.67467 162.886 8.824C163.036 8.97333 163.11 9.16533 163.11 9.4V11.96C163.11 12.1733 163.036 12.3547 162.886 12.504C162.737 12.6533 162.545 12.728 162.31 12.728H151.942V17.752H161.606C161.841 17.752 162.033 17.8267 162.182 17.976C162.332 18.1253 162.406 18.3173 162.406 18.552V20.92C162.406 21.1333 162.332 21.3147 162.182 21.464C162.033 21.6133 161.841 21.688 161.606 21.688H151.942V26.872H162.566C162.801 26.872 162.993 26.9467 163.142 27.096C163.292 27.2453 163.366 27.4373 163.366 27.672V30.2C163.366 30.4347 163.292 30.6267 163.142 30.776C162.993 30.9253 162.801 31 162.566 31H147.814Z" fill="#F4C4F5"/>
<rect x="2" y="5" width="5" height="162" transform="rotate(-90 2 5)" fill="url(#paint0_linear_59_3480)"/>
<rect x="2" y="40" width="5" height="162" transform="rotate(-90 2 40)" fill="url(#paint1_linear_59_3480)"/>
<defs>
<linearGradient id="paint0_linear_59_3480" x1="7" y1="86" x2="2" y2="86" gradientUnits="userSpaceOnUse">
<stop stop-color="#7E30E1"/>
<stop offset="1" stop-color="#F4C4F5"/>
</linearGradient>
<linearGradient id="paint1_linear_59_3480" x1="7" y1="121" x2="2" y2="121" gradientUnits="userSpaceOnUse">
<stop stop-color="#F4C4F5"/>
<stop offset="1" stop-color="#7E30E1"/>
</linearGradient>
</defs>
</svg>
